<?xml version="1.0" encoding="UTF-8"?>
<svg xmlns="http://www.w3.org/2000/svg" xmlns:xlink="http://www.w3.org/1999/xlink"
     width="700" height="400" viewBox="0 -4 7 4" stroke-width="0.01" stroke="black" fill="none">
<defs>
</defs>
<g transform="translate(0.22520000000000007 -0.22199999999999998)">
<g>
<path d="M1.2224,-1.638 H0 v-0.28 h1.2224 M0.9823999999999999,-1.648 v1.648 M0.9823999999999999,-1.908 v-1.648" stroke-width="0.02" stroke="yellow" />
<path d="M1.3874,-2.357 v-0.15" stroke-width="0.09000000000000002" stroke="yellow" />
<path d="M1.3874,-0.449 v-0.15" stroke-width="0.09000000000000002" stroke="yellow" />
<path d="M1.3874,-2.4320000000000004 h-0.135 V-3.5460000000000003 h-0.22" stroke-width="0.02" stroke="yellow" />
<path d="M1.3874,-0.524 h-0.05500000000000001 V0.08 h-1.1423999999999999 v-0.08 h-0.2" stroke-width="0.02" stroke="yellow" />
<path d="M1.3874,-2.657 v-0.15" stroke-width="0.09000000000000002" stroke="yellow" />
<path d="M1.3874,-0.749 v-0.15" stroke-width="0.09000000000000002" stroke="yellow" />
<path d="M1.3874,-2.732 h-0.095 V-3.5860000000000003 h-1.0523999999999998 v0.24000000000000002" stroke-width="0.02" stroke="yellow" />
<path d="M1.3874,-0.824 h-0.095 V0.04 h-1.0523999999999998 v-0.24000000000000002" stroke-width="0.02" stroke="yellow" />
<path d="M1.3874,-2.957 v-0.15" stroke-width="0.09000000000000002" stroke="yellow" />
<path d="M1.3874,-1.049 v-0.15" stroke-width="0.09000000000000002" stroke="yellow" />
<path d="M1.3874,-3.032 h-0.05500000000000001 V-3.6260000000000003 h-1.1423999999999999 v0.08 h-0.2" stroke-width="0.02" stroke="yellow" />
<path d="M1.3874,-1.1239999999999999 h-0.135 V-0.0 h-0.22" stroke-width="0.02" stroke="yellow" />
<rect x="0" y="-1.648" width="0.2" height="1.648" />
<rect x="1.0224" y="-1.648" width="0.2" height="1.648" />
<rect x="0" y="-3.556" width="0.2" height="1.648" />
<rect x="1.0224" y="-3.556" width="0.2" height="1.648" />
<rect x="0.23" y="-0.2" width="0.7623999999999999" height="0.2" />
<rect x="0.23" y="-3.556" width="0.7623999999999999" height="0.2" />
<rect x="0" y="-1.878" width="1.2224" height="0.2" />
</g>
<g transform="translate(1.5524 0)">
<path d="M1.2224,-1.638 H0 v-0.28 h1.2224 M0.9823999999999999,-1.648 v1.648 M0.9823999999999999,-1.908 v-1.648" stroke-width="0.02" stroke="yellow" />
<path d="M1.3874,-2.357 v-0.15" stroke-width="0.09000000000000002" stroke="yellow" />
<path d="M1.3874,-0.449 v-0.15" stroke-width="0.09000000000000002" stroke="yellow" />
<path d="M1.3874,-2.4320000000000004 h-0.135 V-3.5460000000000003 h-0.22" stroke-width="0.02" stroke="yellow" />
<path d="M1.3874,-0.524 h-0.05500000000000001 V0.08 h-1.1423999999999999 v-0.08 h-0.2" stroke-width="0.02" stroke="yellow" />
<path d="M1.3874,-2.657 v-0.15" stroke-width="0.09000000000000002" stroke="yellow" />
<path d="M1.3874,-0.749 v-0.15" stroke-width="0.09000000000000002" stroke="yellow" />
<path d="M1.3874,-2.732 h-0.095 V-3.5860000000000003 h-1.0523999999999998 v0.24000000000000002" stroke-width="0.02" stroke="yellow" />
<path d="M1.3874,-0.824 h-0.095 V0.04 h-1.0523999999999998 v-0.24000000000000002" stroke-width="0.02" stroke="yellow" />
<path d="M1.3874,-2.957 v-0.15" stroke-width="0.09000000000000002" stroke="yellow" />
<path d="M1.3874,-1.049 v-0.15" stroke-width="0.09000000000000002" stroke="yellow" />
<path d="M1.3874,-3.032 h-0.05500000000000001 V-3.6260000000000003 h-1.1423999999999999 v0.08 h-0.2" stroke-width="0.02" stroke="yellow" />
<path d="M1.3874,-1.1239999999999999 h-0.135 V-0.0 h-0.22" stroke-width="0.02" stroke="yellow" />
<rect x="0" y="-1.648" width="0.2" height="1.648" />
<rect x="1.0224" y="-1.648" width="0.2" height="1.648" />
<rect x="0" y="-3.556" width="0.2" height="1.648" />
<rect x="1.0224" y="-3.556" width="0.2" height="1.648" />
<rect x="0.23" y="-0.2" width="0.7623999999999999" height="0.2" />
<rect x="0.23" y="-3.556" width="0.7623999999999999" height="0.2" />
<rect x="0" y="-1.878" width="1.2224" height="0.2" />
</g>
<g transform="translate(3.1748 -1.228)">
<rect x="0" y="-0.2" width="0.2" height="0.2" />
<rect x="0" y="-1.0999999999999999" width="0.2" height="0.2" />
</g>
<g transform="translate(3.7748 0)">
<path d="M1.2224,-1.638 H0 v-0.28 h1.2224 M0.9823999999999999,-1.648 v1.648 M0.9823999999999999,-1.908 v-1.648" stroke-width="0.02" stroke="yellow" />
<path d="M1.3874,-2.357 v-0.15" stroke-width="0.09000000000000002" stroke="yellow" />
<path d="M1.3874,-0.449 v-0.15" stroke-width="0.09000000000000002" stroke="yellow" />
<path d="M1.3874,-2.4320000000000004 h-0.135 V-3.5460000000000003 h-0.22" stroke-width="0.02" stroke="yellow" />
<path d="M1.3874,-0.524 h-0.05500000000000001 V0.08 h-1.1423999999999999 v-0.08 h-0.2" stroke-width="0.02" stroke="yellow" />
<path d="M1.3874,-2.657 v-0.15" stroke-width="0.09000000000000002" stroke="yellow" />
<path d="M1.3874,-0.749 v-0.15" stroke-width="0.09000000000000002" stroke="yellow" />
<path d="M1.3874,-2.732 h-0.095 V-3.5860000000000003 h-1.0523999999999998 v0.24000000000000002" stroke-width="0.02" stroke="yellow" />
<path d="M1.3874,-0.824 h-0.095 V0.04 h-1.0523999999999998 v-0.24000000000000002" stroke-width="0.02" stroke="yellow" />
<path d="M1.3874,-2.957 v-0.15" stroke-width="0.09000000000000002" stroke="yellow" />
<path d="M1.3874,-1.049 v-0.15" stroke-width="0.09000000000000002" stroke="yellow" />
<path d="M1.3874,-3.032 h-0.05500000000000001 V-3.6260000000000003 h-1.1423999999999999 v0.08 h-0.2" stroke-width="0.02" stroke="yellow" />
<path d="M1.3874,-1.1239999999999999 h-0.135 V-0.0 h-0.22" stroke-width="0.02" stroke="yellow" />
<rect x="0" y="-1.648" width="0.2" height="1.648" />
<rect x="1.0224" y="-1.648" width="0.2" height="1.648" />
<rect x="0" y="-3.556" width="0.2" height="1.648" />
<rect x="1.0224" y="-3.556" width="0.2" height="1.648" />
<rect x="0.23" y="-0.2" width="0.7623999999999999" height="0.2" />
<rect x="0.23" y="-3.556" width="0.7623999999999999" height="0.2" />
<rect x="0" y="-1.878" width="1.2224" height="0.2" />
</g>
<g transform="translate(5.3271999999999995 0)">
<path d="M1.2224,-1.638 H0 v-0.28 h1.2224 M0.9823999999999999,-1.648 v1.648 M0.9823999999999999,-1.908 v-1.648" stroke-width="0.02" stroke="yellow" />
<path d="M1.3874,-2.357 v-0.15" stroke-width="0.09000000000000002" stroke="yellow" />
<path d="M1.3874,-0.449 v-0.15" stroke-width="0.09000000000000002" stroke="yellow" />
<path d="M1.3874,-2.4320000000000004 h-0.135 V-3.5460000000000003 h-0.22" stroke-width="0.02" stroke="yellow" />
<path d="M1.3874,-0.524 h-0.05500000000000001 V0.08 h-1.1423999999999999 v-0.08 h-0.2" stroke-width="0.02" stroke="yellow" />
<path d="M1.3874,-2.657 v-0.15" stroke-width="0.09000000000000002" stroke="yellow" />
<path d="M1.3874,-0.749 v-0.15" stroke-width="0.09000000000000002" stroke="yellow" />
<path d="M1.3874,-2.732 h-0.095 V-3.5860000000000003 h-1.0523999999999998 v0.24000000000000002" stroke-width="0.02" stroke="yellow" />
<path d="M1.3874,-0.824 h-0.095 V0.04 h-1.0523999999999998 v-0.24000000000000002" stroke-width="0.02" stroke="yellow" />
<path d="M1.3874,-2.957 v-0.15" stroke-width="0.09000000000000002" stroke="yellow" />
<path d="M1.3874,-1.049 v-0.15" stroke-width="0.09000000000000002" stroke="yellow" />
<path d="M1.3874,-3.032 h-0.05500000000000001 V-3.6260000000000003 h-1.1423999999999999 v0.08 h-0.2" stroke-width="0.02" stroke="yellow" />
<path d="M1.3874,-1.1239999999999999 h-0.135 V-0.0 h-0.22" stroke-width="0.02" stroke="yellow" />
<rect x="0" y="-1.648" width="0.2" height="1.648" />
<rect x="1.0224" y="-1.648" width="0.2" height="1.648" />
<rect x="0" y="-3.556" width="0.2" height="1.648" />
<rect x="1.0224" y="-3.556" width="0.2" height="1.648" />
<rect x="0.23" y="-0.2" width="0.7623999999999999" height="0.2" />
<rect x="0.23" y="-3.556" width="0.7623999999999999" height="0.2" />
<rect x="0" y="-1.878" width="1.2224" height="0.2" />
</g>
</g>
</svg>