<?xml version="1.0" encoding="UTF-8"?>
<svg xmlns="http://www.w3.org/2000/svg" xmlns:xlink="http://www.w3.org/1999/xlink"
     width="720" height="504" viewBox="-5.0 -3.5 10 7">
<defs>
</defs>
<g stroke-width="0.01" fill="none" stroke="black" transform="translate(0 1.5352499999999998)">
<path d="M3.358454579787402,0.23354566926327802 A7.0595,7.0595,0,0,0,-3.3584545797874013,0.23354566926327802" stroke="red" />
<path d="M3.347321421312667,0.35848870399823607 A7.016,7.016,0,0,0,-3.347321421312665,0.3584887039982352" />
<path d="M3.347353241358204,0.3585366474556338 A3.3665,3.3665,0,0,0,3.1355262288768895,-1.2254784853374905" />
<path d="M3.1355262288768895,-1.2254784853374907 L3.1937381371807083,-1.2482298310477515" />
<path d="M3.191996433899805,-1.252677039771595 A3.429,3.429,0,0,0,2.2561094278932483,-2.582249261665341" />
<path d="M2.2149875733457627,-2.5351828927956754 L2.2561094278932483,-2.582249261665341" />
<path d="M2.217105488165591,-2.533330910944327 A3.3665,3.3665,0,0,0,0.7990579803954123,-3.270294878748154" />
<path d="M0.7990579803954123,-3.270294878748154 L0.8138927119488695,-3.3310088041667667" />
<path d="M0.8129647564998421,-3.331235402172766 A3.429,3.429,0,0,0,-0.8129647564998418,-3.331235402172766" />
<path d="M-0.7981469386867067,-3.270517346577608 L-0.8129647564998418,-3.331235402172766" />
<path d="M-0.799057980395412,-3.270294878748154 A3.3665,3.3665,0,0,0,-2.217105488165591,-2.533330910944327" />
<path d="M-2.217105488165591,-2.533330910944327 L-2.258266662385211,-2.5803628972606854" />
<path d="M-2.256109427893248,-2.5822492616653414 A3.429,3.429,0,0,0,-3.1919964338998046,-1.2526770397715958" />
<path d="M-3.1338162714271487,-1.2298446352846537 L-3.1919964338998046,-1.2526770397715958" />
<path d="M-3.1355262288768895,-1.2254784853374907 A3.3665,3.3665,0,0,0,-3.347353241358204,0.3585366474556326" />
</g>
</svg>