<?xml version="1.0" encoding="UTF-8"?>
<svg xmlns="http://www.w3.org/2000/svg" xmlns:xlink="http://www.w3.org/1999/xlink"
     width="504" height="360" viewBox="-3.5 -2.5 7 5">
<defs>
</defs>
<g stroke-width="0.01" fill="none" stroke="black" transform="translate(0 1.4914500000000002)">
<path d="M3.358454579787402,0.42484566926327805 A7.0595,7.0595,0,0,0,-3.3584545797874013,0.42484566926327805" stroke="red" />
<path d="M3.348374339766196,0.46487786086935845 A7.0195,7.0195,0,0,0,-3.3483743397661963,0.46487786086935934" />
<path d="M3.3531352699993073,0.46482566741378567 A3.3852,3.3852,0,0,0,3.3714811250581147,-0.3044569975823709" />
<path d="M3.3714811250581147,-0.30445699758237094 L3.43372783731031,-0.310078101903799" />
<path d="M3.43372783731031,-0.3100781019037989 A3.4477,3.4477,0,0,0,3.2749869131492395,-1.077541650564477" />
<path d="M3.215617860716653,-1.058007946019337 L3.2749869131492395,-1.077541650564477" />
<path d="M3.215617860716653,-1.058007946019337 A3.3852,3.3852,0,0,0,2.893599148646394,-1.7568901522158027" />
<path d="M2.893599148646394,-1.7568901522158027 L2.9470228597389143,-1.7893271232997823" />
<path d="M2.9470228597389148,-1.7893271232997818 A3.4477,3.4477,0,0,0,2.4667820359110397,-2.40865557465292" />
<path d="M2.4220641436221397,-2.364991400445243 L2.4667820359110397,-2.40865557465292" />
<path d="M2.4220641436221397,-2.364991400445243 A3.3852,3.3852,0,0,0,1.825377715250052,-2.8508902533539415" />
<path d="M1.825377715250052,-2.8508902533539415 L1.8590791530389947,-2.903525442067938" />
<path d="M1.8590791530389954,-2.9035254420679375 A3.4477,3.4477,0,0,0,1.1553150643843615,-3.2483661111405775" />
<path d="M1.134371481264014,-3.1894796413356974 L1.1553150643843615,-3.2483661111405775" />
<path d="M1.134371481264014,-3.1894796413356974 A3.3852,3.3852,0,0,0,0.38475069495110303,-3.363264179741854" />
<path d="M0.38475069495110303,-3.363264179741854 L0.3918542393308868,-3.4253591848327987" />
<path d="M0.3918542393308868,-3.4253591848327987 A3.4477,3.4477,0,0,0,-0.39185423933088637,-3.4253591848327987" />
<path d="M-0.38475069495110337,-3.363264179741854 L-0.39185423933088714,-3.4253591848327987" />
<path d="M-0.38475069495110265,-3.363264179741854 A3.3852,3.3852,0,0,0,-1.1343714812640135,-3.189479641335698" />
<path d="M-1.1343714812640142,-3.1894796413356974 L-1.1553150643843617,-3.2483661111405775" />
<path d="M-1.1553150643843613,-3.248366111140578 A3.4477,3.4477,0,0,0,-1.8590791530389952,-2.903525442067938" />
<path d="M-1.8253777152500525,-2.8508902533539415 L-1.8590791530389952,-2.903525442067938" />
<path d="M-1.8253777152500525,-2.8508902533539415 A3.3852,3.3852,0,0,0,-2.4220641436221393,-2.364991400445243" />
<path d="M-2.4220641436221393,-2.364991400445243 L-2.4667820359110393,-2.40865557465292" />
<path d="M-2.4667820359110393,-2.40865557465292 A3.4477,3.4477,0,0,0,-2.9470228597389148,-1.7893271232997814" />
<path d="M-2.8935991486463943,-1.7568901522158018 L-2.9470228597389148,-1.7893271232997814" />
<path d="M-2.8935991486463943,-1.7568901522158018 A3.3852,3.3852,0,0,0,-3.215617860716653,-1.058007946019337" />
<path d="M-3.215617860716653,-1.058007946019337 L-3.2749869131492395,-1.077541650564477" />
<path d="M-3.2749869131492395,-1.077541650564477 A3.4477,3.4477,0,0,0,-3.43372783731031,-0.3100781019037994" />
<path d="M-3.3714811250581147,-0.30445699758236994 L-3.43372783731031,-0.310078101903798" />
<path d="M-3.3714811250581147,-0.3044569975823714 A3.3852,3.3852,0,0,0,-3.3531352699993078,0.46482566741378434" />
</g>
</svg>